<?xml version="1.0" encoding="UTF-8" standalone="no"?>
<!-- Created with Inkscape (http://www.inkscape.org/) -->

<svg
   width="26.442162mm"
   height="23.042618mm"
   viewBox="0 0 26.442162 23.042618"
   version="1.1"
   id="svg521"
   xmlns="http://www.w3.org/2000/svg"
   xmlns:svg="http://www.w3.org/2000/svg">
  <defs
     id="defs518" />
  <path
     id="path182-0"
     style="display:inline;fill:#000000;stroke-width:0.264583"
     d="m 15.965227,0.00113218 a 0.9,0.9 0 0 0 -0.810287,0.63924 C 14.856212,1.6296322 13.93798,2.3095522 12.906499,2.3100322 c -1.001274,-0.002 -1.895232,-0.6438 -2.218469,-1.59163002 a 0.9,0.9 0 0 0 -1.0195764,-0.59377 l -2.992066,0.56638 a 0.9,0.9 0 0 0 -0.468705,0.24805 L 0.26385963,6.8823622 a 0.9,0.9 0 0 0 0,1.27331 L 3.7463336,11.638142 a 0.9,0.9 0 0 0 1.273824,0 l 1.167888,-1.16788 v 11.66388 a 0.9,0.9 0 0 0 0.900203,0.90072 h 5.6425504 a 0.9,0.9 0 0 0 0.01395,0.008 h 6.609415 a 0.9,0.9 0 0 0 0.900204,-0.90021 v -11.6644 l 1.167887,1.1684 a 0.9,0.9 0 0 0 1.273307,0 l 3.482475,-3.4824698 a 0.9,0.9 0 0 0 0,-1.27383 L 20.234731,0.94705218 a 0.9,0.9 0 0 0 -0.468706,-0.24805 l -3.58221,-0.68368 a 0.9,0.9 0 0 0 -0.218591,-0.0134 z m -0.08785,0.66817 3.818371,0.72864002 6.128825,6.12883 -3.765661,3.7656598 -2.505791,-2.5078598 V 22.341372 h -7.132897 l 0.0041,-0.008 H 6.8892606 V 8.7765822 l -2.506307,2.5078598 -3.76514497,-3.7656598 6.12882497,-6.12883 3.222542,-0.60926002 0.05633,0.16381 c 0.420315,1.23250002 1.577258,2.06349002 2.87941,2.06654002 1.34362,-6.1e-4 2.531186,-0.88323 2.919719,-2.16989002 z" />
</svg>
